HIERARCHY
ROOT hip
{
	OFFSET 0.000000 0.000000 0.000000
	CHANNELS 6 Xposition Yposition Zposition Xrotation Zrotation Yrotation 
	JOINT abdomen
	{
		OFFSET 0.000000 3.422050 0.000000
		CHANNELS 3 Xrotation Zrotation Yrotation 
		JOINT chest
		{
			OFFSET 0.000000 8.486693 -0.684411
			CHANNELS 3 Xrotation Zrotation Yrotation 
			JOINT neck
			{
				OFFSET 0.000000 10.266162 -0.273764
				CHANNELS 3 Xrotation Zrotation Yrotation 
				JOINT head
				{
					OFFSET 0.000000 3.148285 0.000000
					CHANNELS 3 Xrotation Zrotation Yrotation 
					End Site
					{
						OFFSET 0.000000 3.148289 0.000000
					}
				}
			}
			JOINT lCollar
			{
				OFFSET 3.422053 6.707223 -0.821293
				CHANNELS 3 Yrotation Zrotation Xrotation 
				JOINT lShldr
				{
					OFFSET 3.285171 0.000000 0.000000
					CHANNELS 3 Zrotation Yrotation Xrotation 
					JOINT lForeArm
					{
						OFFSET 10.129278 0.000000 0.000000
						CHANNELS 3 Yrotation Zrotation Xrotation 
						JOINT lHand
						{
							OFFSET 8.486692 0.000000 0.000000
							CHANNELS 3 Zrotation Yrotation Xrotation 
							End Site
							{
								OFFSET 4.106464 0.000000 0.000000
							}
						}
					}
				}
			}
			JOINT rCollar
			{
				OFFSET -3.558935 6.707223 -0.821293
				CHANNELS 3 Yrotation Zrotation Xrotation 
				JOINT rShldr
				{
					OFFSET -3.148289 0.000000 0.000000
					CHANNELS 3 Zrotation Yrotation Xrotation 
					JOINT rForeArm
					{
						OFFSET -10.266159 0.000000 0.000000
						CHANNELS 3 Yrotation Zrotation Xrotation 
						JOINT rHand
						{
							OFFSET -8.349810 0.000000 0.000000
							CHANNELS 3 Zrotation Yrotation Xrotation 
							End Site
							{
								OFFSET -4.106464 0.000000 0.000000
							}
						}
					}
				}
			}
		}
	}
	JOINT lThigh
	{
		OFFSET 5.338403 -1.642589 1.368821
		CHANNELS 3 Xrotation Zrotation Yrotation 
		JOINT lShin
		{
			OFFSET -2.053232 -20.121670 0.000000
			CHANNELS 3 Xrotation Zrotation Yrotation 
			JOINT lFoot
			{
				OFFSET 0.000000 -19.300380 -1.231939
				CHANNELS 3 Xrotation Yrotation Zrotation 
				End Site
				{
					OFFSET 0.000000 -2.463878 4.653993
				}
			}
		}
	}
	JOINT rThigh
	{
		OFFSET -5.338403 -1.642589 1.368821
		CHANNELS 3 Xrotation Zrotation Yrotation 
		JOINT rShin
		{
			OFFSET 2.053232 -20.121670 0.000000
			CHANNELS 3 Xrotation Zrotation Yrotation 
			JOINT rFoot
			{
				OFFSET 0.000000 -19.300380 -1.231939
				CHANNELS 3 Xrotation Yrotation Zrotation 
				End Site
				{
					OFFSET 0.000000 -2.463878 4.653993
				}
			}
		}
	}
}
MOTION
Frames: 13
Frame Time: 0.049897
0.381469 44.462666 10.682193 8.397549 0.000000 -180.000000 5.922082 -1.211098 -0.813356 16.832420 -1.269888 -0.565969 -14.973938 23.998852 -1.002086 -14.399646 10.997602 -28.001013 -24.621336 -5.697766 -25.410688 3.818486 -46.481846 -27.093744 -67.856285 -27.416929 -19.026865 -27.744047 10.799055 -18.135729 0.574334 1.748733 -4.240239 71.724190 28.680042 8.126413 23.233900 20.313189 -3.003221 -0.208580 2.846742 0.804852 10.445393 1.059588 0.017962 5.445836 -3.558702 0.183117 6.438230 0.828870 7.428776 -158.016235 -1.288197 -0.851702 21.009060 0.004303 0.559665 1.011128 -0.490674 -4.318497 
0.381469 44.462666 10.716135 7.795465 0.000000 -180.000000 5.696968 -1.211079 -0.813343 16.356413 -1.269933 -0.565933 -15.695909 23.998859 -1.002067 -14.844331 10.997611 -28.001019 -24.427158 -5.883990 -25.279877 3.812739 -46.462639 -27.088570 -68.230682 -27.463099 -19.199677 -27.667402 10.995585 -18.184929 0.509422 1.749653 -4.009870 71.724190 28.680042 8.126413 23.344147 20.394619 -3.038386 -0.284394 2.916747 0.876290 9.647197 1.020977 0.040096 5.708692 -3.487105 0.160999 6.244987 0.825313 7.410061 -158.293472 -1.338176 -0.831475 20.431023 0.131276 0.549123 1.264641 -0.487553 -4.382233 
0.381469 44.462666 10.750077 7.193447 0.000000 -180.000000 5.471858 -1.211060 -0.813331 15.880438 -1.269977 -0.565897 -16.417191 23.998863 -1.002047 -15.288855 10.997619 -28.001030 -24.232500 -6.069767 -25.148394 3.806999 -46.443443 -27.083406 -68.605354 -27.508255 -19.372881 -27.590889 11.192180 -18.233896 0.444507 1.750312 -3.779502 71.724190 28.680042 8.126413 23.454500 20.475981 -3.073735 -0.360124 2.986846 0.947639 8.849154 0.982685 0.062761 5.971494 -3.415411 0.139213 6.051746 0.821820 7.391335 -158.570709 -1.388056 -0.811007 19.853022 0.258121 0.537301 1.518152 -0.484713 -4.445982 
0.381469 44.462666 10.784019 6.591528 0.000000 -180.000000 5.246751 -1.211041 -0.813318 15.404511 -1.270021 -0.565860 -17.137716 23.998861 -1.002026 -15.733203 10.997628 -28.001038 -24.037342 -6.255090 -25.016228 3.801262 -46.424248 -27.078249 -68.980331 -27.552412 -19.546480 -27.514496 11.388837 -18.282629 0.379592 1.750711 -3.549142 71.724190 28.680042 8.126413 23.564962 20.557276 -3.109269 -0.435772 3.057039 1.018899 8.051336 0.944723 0.085951 6.234241 -3.343618 0.117759 5.858505 0.818389 7.372594 -158.847961 -1.437834 -0.790298 19.275070 0.384821 0.524203 1.771658 -0.482156 -4.509739 
0.381469 44.462666 10.817962 5.989743 0.000000 -180.000000 5.021653 -1.211022 -0.813306 14.928645 -1.270065 -0.565823 -17.857450 23.998867 -1.002007 -16.177364 10.997634 -28.001040 -23.841705 -6.439955 -24.883396 3.795527 -46.405041 -27.073093 -69.355591 -27.595551 -19.720463 -27.438211 11.585546 -18.331121 0.314678 1.750848 -3.318788 71.724190 28.680042 8.126413 23.675543 20.638517 -3.144991 -0.511336 3.127326 1.090071 7.253825 0.907103 0.109657 6.496930 -3.271733 0.096637 5.665269 0.815022 7.353844 -159.125229 -1.487509 -0.769348 18.697212 0.511356 0.509830 2.025156 -0.479881 -4.573506 
0.381469 44.462666 10.851904 5.388123 0.000000 -180.000000 4.796562 -1.211003 -0.813294 14.452870 -1.270108 -0.565785 -18.576323 23.998873 -1.001988 -16.621325 10.997642 -28.001049 -23.645575 -6.624355 -24.749882 3.789800 -46.385849 -27.067944 -69.731087 -27.637671 -19.894804 -27.362057 11.782314 -18.379385 0.249768 1.750724 -3.088445 71.724190 28.680042 8.126413 23.786224 20.719677 -3.180897 -0.586816 3.197704 1.161153 6.456692 0.869834 0.133872 6.759560 -3.199755 0.075849 5.472039 0.811718 7.335083 -159.402512 -1.537079 -0.748159 18.119463 0.637705 0.494185 2.278643 -0.477889 -4.637278 
0.381469 44.462666 10.885846 4.786699 0.000000 -180.000000 4.571483 -1.210984 -0.813282 13.977186 -1.270151 -0.565747 -19.294281 23.998875 -1.001967 -17.065075 10.997649 -28.001057 -23.448956 -6.808288 -24.615704 3.784076 -46.366638 -27.062792 -70.106842 -27.678785 -20.069511 -27.286007 11.979135 -18.427406 0.184861 1.750340 -2.858113 71.724190 28.680042 8.126413 23.897026 20.800779 -3.216992 -0.662214 3.268176 1.232147 5.660015 0.832927 0.158589 7.022126 -3.127687 0.055394 5.278813 0.808478 7.316313 -159.679779 -1.586542 -0.726732 17.541842 0.763850 0.477273 2.532117 -0.476178 -4.701056 
0.381469 44.462666 10.919788 4.185510 0.000000 -180.000000 4.346415 -1.210964 -0.813270 13.501619 -1.270194 -0.565709 -20.011269 23.998877 -1.001947 -17.508595 10.997656 -28.001064 -23.251839 -6.991743 -24.480839 3.778357 -46.347435 -27.057653 -70.482834 -27.718870 -20.244558 -27.210085 12.176006 -18.475201 0.119960 1.749695 -2.627796 71.724190 28.680042 8.126413 24.007938 20.881813 -3.253271 -0.737527 3.338739 1.303051 4.863874 0.796393 0.183799 7.284627 -3.055533 0.035272 5.085595 0.805301 7.297532 -159.957062 -1.635897 -0.705066 16.964388 0.889771 0.459096 2.785573 -0.474750 -4.764833 
0.381469 44.462666 10.953731 3.584584 0.000000 -180.000000 4.121362 -1.210945 -0.813258 13.026184 -1.270236 -0.565671 -20.727240 23.998877 -1.001927 -17.951880 10.997664 -28.001072 -23.054230 -7.174717 -24.345303 3.772643 -46.328239 -27.052519 -70.859047 -27.757936 -20.419941 -27.134272 12.372930 -18.522755 0.055067 1.748789 -2.397496 71.724190 28.680042 8.126413 24.118963 20.962782 -3.289739 -0.812758 3.409393 1.373866 4.068341 0.760239 0.209494 7.547065 -2.983294 0.015485 4.892384 0.802187 7.278740 -160.234344 -1.685142 -0.683164 16.387115 1.015448 0.439658 3.039010 -0.473604 -4.828612 
0.381469 44.462666 10.987673 2.983957 0.000000 -180.000000 3.896323 -1.210926 -0.813246 12.550895 -1.270278 -0.565632 -21.442129 23.998880 -1.001907 -18.394899 10.997671 -28.001076 -22.856136 -7.357206 -24.209099 3.766933 -46.309032 -27.047386 -71.235458 -27.795969 -20.595642 -27.058588 12.569905 -18.570086 -0.009816 1.747622 -2.167214 71.724190 28.680042 8.126413 24.230103 21.043682 -3.326393 -0.887904 3.480139 1.444592 3.273495 0.724478 0.235665 7.809433 -2.910973 -0.003967 4.699183 0.799137 7.259942 -160.511612 -1.734275 -0.661025 15.810053 1.140864 0.418965 3.292423 -0.472740 -4.892390 
0.381469 44.462666 11.021615 2.383661 0.000000 -180.000000 3.671302 -1.210906 -0.813234 12.075772 -1.270320 -0.565593 -22.155897 23.998890 -1.001888 -18.837662 10.997678 -28.001087 -22.657536 -7.539199 -24.072208 3.761229 -46.289841 -27.042257 -71.612068 -27.832979 -20.771652 -26.983007 12.766922 -18.617174 -0.074689 1.746196 -1.936955 71.724190 28.680042 8.126413 24.341352 21.124512 -3.363234 -0.962967 3.550976 1.515228 2.479409 0.689116 0.262303 8.071730 -2.838572 -0.023084 4.505992 0.796151 7.241131 -160.788879 -1.783294 -0.638651 15.233228 1.265998 0.397020 3.545810 -0.472158 -4.956163 
0.381469 44.462666 11.055557 1.783725 0.000000 -180.000000 3.446301 -1.210887 -0.813222 11.600827 -1.270362 -0.565553 -22.868479 23.998892 -1.001869 -19.280148 10.997688 -28.001095 -22.458452 -7.720697 -23.934656 3.755525 -46.270630 -27.037132 -71.988892 -27.868958 -20.947968 -26.907534 12.963981 -18.664024 -0.139550 1.744509 -1.706719 71.724190 28.680042 8.126413 24.452721 21.205273 -3.400262 -1.037946 3.621902 1.585775 1.686156 0.654165 0.289400 8.333955 -2.766092 -0.041865 4.312813 0.793228 7.222314 -161.066162 -1.832199 -0.616042 14.656657 1.390832 0.373829 3.799171 -0.471859 -5.019933 
0.381469 44.462666 11.089499 1.184186 0.000000 -180.000000 3.221320 -1.210867 -0.813210 11.126077 -1.270403 -0.565513 -23.579842 23.998901 -1.001850 -19.722338 10.997697 -28.001106 -22.258865 -7.901691 -23.796419 3.749829 -46.251427 -27.032013 -72.365845 -27.903900 -21.124557 -26.832182 13.161091 -18.710651 -0.204396 1.742561 -1.476509 71.724190 28.680042 8.126413 24.564196 21.285961 -3.437478 -1.112842 3.692920 1.656233 0.893814 0.619632 0.316945 8.596103 -2.693538 -0.060311 4.119646 0.790369 7.203488 -161.343399 -1.880986 -0.593199 14.080379 1.515347 0.349397 4.052498 -0.471841 -5.083694 
